<svg xmlns="http://www.w3.org/2000/svg" xmlns:xlink="http://www.w3.org/1999/xlink" width="170" height="170" viewBox="0 0 170 170"><defs><clipPath id="a"><rect width="170" height="170" transform="translate(0 0.48)" fill="none"/></clipPath></defs><g transform="translate(0 -0.48)" clip-path="url(#a)"><path d="M120.91,61.222l.079.011V.622a.523.523,0,0,0-1.045,0v60.6h.523c.049,0,.1,0,.152,0l.076,0a1.534,1.534,0,0,1,.216.006" transform="translate(-35.447 0.562)"/><path d="M120.91,61.222l.079.011V.622a.523.523,0,0,0-1.045,0v60.6h.523c.049,0,.1,0,.152,0l.076,0A1.534,1.534,0,0,1,120.91,61.222Z" transform="translate(-35.447 0.562)" fill="none" stroke="#000" stroke-width="0.2"/><path d="M120.013,154.534h-.07v60.6a.523.523,0,1,0,1.045,0v-60.6h-.975Z" transform="translate(-35.447 -45.078)"/><path d="M120.013,154.534h-.07v60.6a.523.523,0,1,0,1.045,0v-60.6h-.975Z" transform="translate(-35.447 -45.078)" fill="none" stroke="#000" stroke-width="0.2"/><path d="M154.6,119.945h-.07v.07h0v.07h60.6a.519.519,0,0,0,.523-.523.534.534,0,0,0-.541-.523Z" transform="translate(-45.67 -34.856)"/><path d="M154.6,119.945h-.07v.07h0v.07h60.6a.519.519,0,0,0,.523-.523.534.534,0,0,0-.541-.523Z" transform="translate(-45.67 -34.856)" fill="none" stroke="#000" stroke-width="0.2"/><path d="M61.222,120.023l.008-.078H.623a.523.523,0,1,0,0,1.045h60.6v-.07h0c0-.049,0-.1,0-.149,0-.025,0-.049,0-.073a1.582,1.582,0,0,1,.006-.223" transform="translate(-0.03 -34.856)"/><path d="M61.222,120.023l.008-.078H.623a.523.523,0,1,0,0,1.045h60.6v-.07h0c0-.049,0-.1,0-.149,0-.025,0-.049,0-.073A1.582,1.582,0,0,1,61.222,120.023Z" transform="translate(-0.03 -34.856)" fill="none" stroke="#000" stroke-width="0.2"/><path d="M78.908,78.248l.05-.05-.05-.049-42.8-42.8a.506.506,0,0,0-.735,0,.523.523,0,0,0,0,.731L78.157,78.9l.05.05.05-.05h.651Z" transform="translate(-10.41 -9.808)"/><path d="M78.908,78.248l.05-.05-.05-.049-42.8-42.8a.506.506,0,0,0-.735,0,.523.523,0,0,0,0,.731L78.157,78.9l.05.05.05-.05h.651Z" transform="translate(-10.41 -9.808)" fill="none" stroke="#000" stroke-width="0.2"/><path d="M144.144,144.773l-.054.05.051.052,42.8,42.8a.525.525,0,1,0,.75-.734l-42.817-42.8-.052-.051-.05.054c-.2.216-.413.431-.628.628" transform="translate(-42.584 -41.992)"/><path d="M144.144,144.773l-.054.05.051.052,42.8,42.8a.525.525,0,1,0,.75-.734l-42.817-42.8-.052-.051-.05.054C144.575,144.36,144.36,144.575,144.144,144.773Z" transform="translate(-42.584 -41.992)" fill="none" stroke="#000" stroke-width="0.2"/><path d="M78.248,144.142l-.05-.049-.049.049-42.8,42.8a.525.525,0,0,0,.751.733l42.8-42.8.052-.052-.054-.05c-.216-.2-.431-.414-.649-.631" transform="translate(-10.4 -41.993)"/><path d="M78.248,144.142l-.05-.049-.049.049-42.8,42.8a.525.525,0,0,0,.751.733l42.8-42.8.052-.052-.054-.05C78.681,144.576,78.466,144.36,78.248,144.142Z" transform="translate(-10.4 -41.993)" fill="none" stroke="#000" stroke-width="0.2"/><path d="M144.774,78.907l.05.054.052-.052,42.8-42.8a.507.507,0,0,0,0-.735.525.525,0,0,0-.732,0l-42.8,42.781-.049.05.049.05c.218.217.433.433.631.649" transform="translate(-42.585 -9.819)"/><path d="M144.774,78.907l.05.054.052-.052,42.8-42.8a.507.507,0,0,0,0-.735.525.525,0,0,0-.732,0l-42.8,42.781-.049.05.049.05C144.36,78.475,144.576,78.692,144.774,78.907Z" transform="translate(-42.585 -9.819)" fill="none" stroke="#000" stroke-width="0.2"/><path d="M157.171,207.625h0a.527.527,0,0,0,.48.313.726.726,0,0,0,.2-.039h0a.509.509,0,0,0,.275-.691h0l-23.824-55.644-.029-.067-.066.031c-.135.063-.273.121-.414.18h0c-.14.058-.281.118-.418.182l-.061.029.027.063Z" transform="translate(-39.401 -44.18)"/><path d="M157.171,207.625h0a.527.527,0,0,0,.48.313.726.726,0,0,0,.2-.039h0a.509.509,0,0,0,.275-.691h0l-23.824-55.644-.029-.067-.066.031c-.135.063-.273.121-.414.18h0c-.14.058-.281.118-.418.182l-.061.029.027.063Z" transform="translate(-39.401 -44.18)" fill="none" stroke="#000" stroke-width="0.2"/><path d="M96.661,66.155l.028.067.066-.031c.134-.063.273-.12.414-.18s.281-.118.418-.182l.062-.029-.027-.063L73.8,10.095h0a.524.524,0,1,0-.962.417h0Z" transform="translate(-21.512 -2.296)"/><path d="M96.661,66.155l.028.067.066-.031c.134-.063.273-.12.414-.18s.281-.118.418-.182l.062-.029-.027-.063L73.8,10.095h0a.524.524,0,1,0-.962.417h0Z" transform="translate(-21.512 -2.296)" fill="none" stroke="#000" stroke-width="0.2"/><path d="M10.5,158.133h0l.006,0,55.645-23.824.067-.029-.031-.066c-.063-.134-.121-.273-.18-.414h0c-.058-.14-.118-.281-.182-.418l-.029-.062-.063.028L10.1,157.169h0a.508.508,0,0,0-.273.691.526.526,0,0,0,.48.313.7.7,0,0,0,.2-.039" transform="translate(-2.888 -38.808)"/><path d="M10.5,158.133h0l.006,0,55.645-23.824.067-.029-.031-.066c-.063-.134-.121-.273-.18-.414h0c-.058-.14-.118-.281-.182-.418l-.029-.062-.063.028L10.1,157.169h0a.508.508,0,0,0-.273.691.526.526,0,0,0,.48.313A.7.7,0,0,0,10.5,158.133Z" transform="translate(-2.888 -38.808)" fill="none" stroke="#000" stroke-width="0.2"/><path d="M151.562,96.643l-.067.029.031.066c.063.135.121.273.18.414h0c.058.14.118.281.182.418l.029.061.063-.027L207.622,73.8h0a.524.524,0,1,0-.417-.962h0Z" transform="translate(-44.772 -20.92)"/><path d="M151.562,96.643l-.067.029.031.066c.063.135.121.273.18.414h0c.058.14.118.281.182.418l.029.061.063-.027L207.622,73.8h0a.524.524,0,1,0-.417-.962h0Z" transform="translate(-44.772 -20.92)" fill="none" stroke="#000" stroke-width="0.2"/><path d="M208.085,156.086h.008a.586.586,0,0,0,.181.038.516.516,0,0,0,.481-.333h0a.538.538,0,0,0-.29-.686h0l-56.169-22.5-.067-.027-.025.067c-.108.289-.216.558-.342.827l-.032.068.069.027Z" transform="translate(-44.87 -38.588)"/><path d="M208.085,156.086h.008a.586.586,0,0,0,.181.038.516.516,0,0,0,.481-.333h0a.538.538,0,0,0-.29-.686h0l-56.169-22.5-.067-.027-.025.067c-.108.289-.216.558-.342.827l-.032.068.069.027Z" transform="translate(-44.87 -38.588)" fill="none" stroke="#000" stroke-width="0.2"/><path d="M9.415,75.435h0a.511.511,0,0,0-.67.294.536.536,0,0,0,.29.686h0l56.188,22.5.067.027.025-.068c.108-.288.216-.558.341-.827l.032-.068-.069-.027Z" transform="translate(-2.573 -21.691)"/><path d="M9.415,75.435h0a.511.511,0,0,0-.67.294.536.536,0,0,0,.29.686h0l56.188,22.5.067.027.025-.068c.108-.288.216-.558.341-.827l.032-.068-.069-.027Z" transform="translate(-2.573 -21.691)" fill="none" stroke="#000" stroke-width="0.2"/><path d="M156.086,9.416h0a.51.51,0,0,0-.294-.67.537.537,0,0,0-.686.29v0l-22.5,56.17-.027.067.068.025c.289.108.558.216.827.342l.068.031.027-.069Z" transform="translate(-39.18 -1.982)"/><path d="M156.086,9.416h0a.51.51,0,0,0-.294-.67.537.537,0,0,0-.686.29v0l-22.5,56.17-.027.067.068.025c.289.108.558.216.827.342l.068.031.027-.069Z" transform="translate(-39.18 -1.982)" fill="none" stroke="#000" stroke-width="0.2"/><path d="M75.434,208.077h0a.511.511,0,0,0,.294.67h.007a.565.565,0,0,0,.181.039.517.517,0,0,0,.481-.334l22.5-56.187.027-.067-.068-.025c-.289-.108-.558-.216-.827-.342l-.068-.032-.027.07Z" transform="translate(-22.282 -44.271)"/><path d="M75.434,208.077h0a.511.511,0,0,0,.294.67h.007a.565.565,0,0,0,.181.039.517.517,0,0,0,.481-.334l22.5-56.187.027-.067-.068-.025c-.289-.108-.558-.216-.827-.342l-.068-.032-.027.07Z" transform="translate(-22.282 -44.271)" fill="none" stroke="#000" stroke-width="0.2"/><path d="M97.986,2.751h0a.532.532,0,0,0-.6-.416h0a.531.531,0,0,0-.416.6v0l11.613,59.408.013.068.069-.013c.145-.027.294-.059.443-.091h0c.149-.032.3-.063.442-.09l.07-.013-.013-.07Z" transform="translate(-28.654 -0.096)"/><path d="M97.986,2.751h0a.532.532,0,0,0-.6-.416h0a.531.531,0,0,0-.416.6v0l11.613,59.408.013.068.069-.013c.145-.027.294-.059.443-.091h0c.149-.032.3-.063.442-.09l.07-.013-.013-.07Z" transform="translate(-28.654 -0.096)" fill="none" stroke="#000" stroke-width="0.2"/><path d="M138.688,213.858h.015a.531.531,0,0,0,.416-.6v0l-11.632-59.408-.013-.068-.069.013c-.145.027-.3.059-.444.091h0c-.149.032-.3.063-.442.09l-.07.013.013.069,11.614,59.388h0a.519.519,0,0,0,.522.419h.09Z" transform="translate(-37.37 -44.854)"/><path d="M138.688,213.858h.015a.531.531,0,0,0,.416-.6v0l-11.632-59.408-.013-.068-.069.013c-.145.027-.3.059-.444.091h0c-.149.032-.3.063-.442.09l-.07.013.013.069,11.614,59.388h0a.519.519,0,0,0,.522.419h.09Z" transform="translate(-37.37 -44.854)" fill="none" stroke="#000" stroke-width="0.2"/><path d="M2.751,138.077h0a.532.532,0,0,0-.416.6h0a.519.519,0,0,0,.522.421h.1l59.39-11.614.068-.013-.013-.069c-.027-.145-.059-.3-.091-.444h0c-.032-.15-.063-.3-.09-.442l-.013-.07-.07.013Z" transform="translate(-0.688 -36.779)"/><path d="M2.751,138.077h0a.532.532,0,0,0-.416.6h0a.519.519,0,0,0,.522.421h.1l59.39-11.614.068-.013-.013-.069c-.027-.145-.059-.3-.091-.444h0c-.032-.15-.063-.3-.09-.442l-.013-.07-.07.013Z" transform="translate(-0.688 -36.779)" fill="none" stroke="#000" stroke-width="0.2"/><path d="M213.447,97.985h0a.532.532,0,0,0,.416-.6h0v0a.53.53,0,0,0-.6-.416h0l-59.39,11.613-.068.013.013.069c.027.145.059.3.091.445s.063.3.09.442l.013.07.07-.013Z" transform="translate(-45.453 -28.062)"/><path d="M213.447,97.985h0a.532.532,0,0,0,.416-.6h0v0a.53.53,0,0,0-.6-.416h0l-59.39,11.613-.068.013.013.069c.027.145.059.3.091.445s.063.3.09.442l.013.07.07-.013Z" transform="translate(-45.453 -28.062)" fill="none" stroke="#000" stroke-width="0.2"/><path d="M70.96,87.8l.06.04.039-.061c.163-.254.324-.5.5-.737l.046-.059-.062-.042L21.329,53.132h0a.527.527,0,1,0-.586.876Z" transform="translate(-6.059 -15.083)"/><path d="M70.96,87.8l.06.04.039-.061c.163-.254.324-.5.5-.737l.046-.059-.062-.042L21.329,53.132h0a.527.527,0,1,0-.586.876Z" transform="translate(-6.059 -15.083)" fill="none" stroke="#000" stroke-width="0.2"/><path d="M148.914,138.958l.059.04,50.236,33.774a.519.519,0,0,1,.144.733m-50.44-34.547L199.3,173.464m-50.383-34.506-.039.061c-.163.254-.324.5-.5.737l-.046.059.063.042,50.235,33.791m-49.709-34.69,49.749,34.632m.69-.085h0l-.057-.041m.057.041h0l-.058-.041m.057.041a.541.541,0,0,1-.437.228.484.484,0,0,1-.294-.085m.673-.184a.473.473,0,0,1-.38.2.416.416,0,0,1-.254-.073m-.04.058h0l.039-.058m-.04.058h0l.042-.056" transform="translate(-43.836 -40.475)"/><path d="M148.914,138.958l.059.04,50.236,33.774a.519.519,0,0,1,.144.733m-50.44-34.547L199.3,173.464m-50.383-34.506-.039.061c-.163.254-.324.5-.5.737l-.046.059.063.042,50.235,33.791m-49.709-34.69,49.749,34.632m.69-.085h0l-.057-.041m.057.041h0l-.058-.041m.057.041a.541.541,0,0,1-.437.228.484.484,0,0,1-.294-.085m.673-.184a.473.473,0,0,1-.38.2.416.416,0,0,1-.254-.073m-.04.058h0l.039-.058m-.04.058h0l.042-.056" transform="translate(-43.836 -40.475)" fill="none" stroke="#000" stroke-width="0.2"/><path d="M139,70.96l-.04.06.061.039c.254.163.5.324.737.5l.059.046.042-.062,33.79-50.216h0a.527.527,0,1,0-.876-.586Z" transform="translate(-41.067 -5.468)"/><path d="M139,70.96l-.04.06.061.039c.254.163.5.324.737.5l.059.046.042-.062,33.79-50.216h0a.527.527,0,1,0-.876-.586Z" transform="translate(-41.067 -5.468)" fill="none" stroke="#000" stroke-width="0.2"/><path d="M54.006,199.22h0L87.8,149l.04-.06-.061-.039c-.254-.163-.5-.325-.737-.5l-.059-.046-.042.062L53.131,198.631h0a.52.52,0,0,0,.144.731.488.488,0,0,0,.294.085.543.543,0,0,0,.437-.229" transform="translate(-15.674 -43.252)"/><path d="M54.006,199.22h0L87.8,149l.04-.06-.061-.039c-.254-.163-.5-.325-.737-.5l-.059-.046-.042.062L53.131,198.631h0a.52.52,0,0,0,.144.731.488.488,0,0,0,.294.085A.543.543,0,0,0,54.006,199.22Z" transform="translate(-15.674 -43.252)" fill="none" stroke="#000" stroke-width="0.2"/><path d="M53.474,21.105h0v0a.55.55,0,0,0-.726-.146l-.006,0a.549.549,0,0,0-.146.726h0l0,0L86.661,71.728l.041.06.058-.042c.253-.18.487-.342.739-.5l.061-.039-.041-.059Z" transform="translate(-15.521 -5.579)"/><path d="M53.474,21.105h0v0a.55.55,0,0,0-.726-.146l-.006,0a.549.549,0,0,0-.146.726h0l0,0L86.661,71.728l.041.06.058-.042c.253-.18.487-.342.739-.5l.061-.039-.041-.059Z" transform="translate(-15.521 -5.579)" fill="none" stroke="#000" stroke-width="0.2"/><path d="M173.218,198.936h0a.542.542,0,0,0,.437.228.485.485,0,0,0,.3-.086.55.55,0,0,0,.145-.726l0,0-34.081-50.037-.041-.059-.058.042c-.252.18-.487.342-.739.5l-.061.039.041.06Z" transform="translate(-41.113 -43.222)"/><path d="M173.218,198.936h0a.542.542,0,0,0,.437.228.485.485,0,0,0,.3-.086.55.55,0,0,0,.145-.726l0,0-34.081-50.037-.041-.059-.058.042c-.252.18-.487.342-.739.5l-.061.039.041.06Z" transform="translate(-41.113 -43.222)" fill="none" stroke="#000" stroke-width="0.2"/><path d="M21.106,173.224h0a.55.55,0,0,0-.146.726h0l0,0a.542.542,0,0,0,.437.228.484.484,0,0,0,.294-.085h0l50.035-34.062.06-.041-.042-.058c-.18-.253-.342-.487-.5-.739l-.039-.061-.06.04Z" transform="translate(-6.171 -40.528)"/><path d="M21.106,173.224h0a.55.55,0,0,0-.146.726h0l0,0a.542.542,0,0,0,.437.228.484.484,0,0,0,.294-.085h0l50.035-34.062.06-.041-.042-.058c-.18-.253-.342-.487-.5-.739l-.039-.061-.06.04Z" transform="translate(-6.171 -40.528)" fill="none" stroke="#000" stroke-width="0.2"/><path d="M198.937,53.474h0a.549.549,0,0,0,.146-.726h0l0-.006a.55.55,0,0,0-.726-.147l0,0L148.314,86.661l-.06.041.042.058c.18.253.342.487.5.739l.039.061.06-.041Z" transform="translate(-43.814 -14.929)"/><path d="M198.937,53.474h0a.549.549,0,0,0,.146-.726h0l0-.006a.55.55,0,0,0-.726-.147l0,0L148.314,86.661l-.06.041.042.058c.18.253.342.487.5.739l.039.061.06-.041Z" transform="translate(-43.814 -14.929)" fill="none" stroke="#000" stroke-width="0.2"/><path d="M62.09,109.906l.069.013.013-.069c.027-.145.054-.294.082-.444h0c.027-.149.054-.3.081-.442l.013-.069-.07-.013L2.837,97.575h0A.521.521,0,1,0,2.648,98.6h0Z" transform="translate(-0.655 -28.242)"/><path d="M62.09,109.906l.069.013.013-.069c.027-.145.054-.294.082-.444h0c.027-.149.054-.3.081-.442l.013-.069-.07-.013L2.837,97.575h0A.521.521,0,1,0,2.648,98.6h0Z" transform="translate(-0.655 -28.242)" fill="none" stroke="#000" stroke-width="0.2"/><path d="M213.338,138.614h.1a.534.534,0,0,0,.521-.416v0a.5.5,0,0,0-.419-.609h0l-59.459-11.305-.069-.013-.013.07c-.027.144-.054.294-.081.443s-.054.3-.082.443l-.013.069.069.013Z" transform="translate(-45.461 -36.725)"/><path d="M213.338,138.614h.1a.534.534,0,0,0,.521-.416v0a.5.5,0,0,0-.419-.609h0l-59.459-11.305-.069-.013-.013.07c-.027.144-.054.294-.081.443s-.054.3-.082.443l-.013.069.069.013Z" transform="translate(-45.461 -36.725)" fill="none" stroke="#000" stroke-width="0.2"/><path d="M126.283,62.108l-.013.069.07.013.443.082h0l.442.081.069.013.013-.07,11.305-59.46h0a.521.521,0,1,0-1.025-.188h0Z" transform="translate(-37.317 -0.063)"/><path d="M126.283,62.108l-.013.069.07.013.443.082h0l.442.081.069.013.013-.07,11.305-59.46h0a.521.521,0,1,0-1.025-.188h0Z" transform="translate(-37.317 -0.063)" fill="none" stroke="#000" stroke-width="0.2"/><path d="M98,213.937h.1a.533.533,0,0,0,.521-.415v0l11.288-59.462.013-.069-.07-.013-.443-.082-.443-.081-.069-.013-.013.069-11.305,59.46h0a.5.5,0,0,0,.421.608" transform="translate(-28.833 -44.861)"/><path d="M98,213.937h.1a.533.533,0,0,0,.521-.415v0l11.288-59.462.013-.069-.07-.013-.443-.082-.443-.081-.069-.013-.013.069-11.305,59.46h0A.5.5,0,0,0,98,213.937Z" transform="translate(-28.833 -44.861)" fill="none" stroke="#000" stroke-width="0.2"/><path d="M112.566,35.933h0a.619.619,0,0,0-.676-.55h0a.619.619,0,0,0-.549.675h0l3.581,35.69.007.07.07-.007,1.086-.108.07-.007-.007-.07Z" transform="translate(-32.904 -9.863)"/><path d="M112.566,35.933h0a.619.619,0,0,0-.676-.55h0a.619.619,0,0,0-.549.675h0l3.581,35.69.007.07.07-.007,1.086-.108.07-.007-.007-.07Z" transform="translate(-32.904 -9.863)" fill="none" stroke="#000" stroke-width="0.2"/><path d="M126.81,190.17h0v0a.633.633,0,0,0,.613.549h.063a.618.618,0,0,0,.549-.674h0l-3.581-35.709-.007-.07-.07.007-1.086.108-.07.007.007.07Z" transform="translate(-36.416 -45)"/><path d="M126.81,190.17h0v0a.633.633,0,0,0,.613.549h.063a.618.618,0,0,0,.549-.674h0l-3.581-35.709-.007-.07-.07.007-1.086.108-.07.007.007.07Z" transform="translate(-36.416 -45)" fill="none" stroke="#000" stroke-width="0.2"/><path d="M190.171,112.567h0a.618.618,0,0,0,.55-.675h0a.632.632,0,0,0-.671-.55h0l-35.71,3.582-.07.007.007.07.108,1.085.007.07.07-.007Z" transform="translate(-45.592 -32.313)"/><path d="M190.171,112.567h0a.618.618,0,0,0,.55-.675h0a.632.632,0,0,0-.671-.55h0l-35.71,3.582-.07.007.007.07.108,1.085.007.07.07-.007Z" transform="translate(-45.592 -32.313)" fill="none" stroke="#000" stroke-width="0.2"/><path d="M35.934,126.8h0a.619.619,0,0,0-.55.676h0a.633.633,0,0,0,.613.549h.061l35.692-3.6.07-.007-.007-.07-.054-.542-.054-.543-.007-.07-.07.007Z" transform="translate(-10.455 -35.817)"/><path d="M35.934,126.8h0a.619.619,0,0,0-.55.676h0a.633.633,0,0,0,.613.549h.061l35.692-3.6.07-.007-.007-.07-.054-.542-.054-.543-.007-.07-.07.007Z" transform="translate(-10.455 -35.817)" fill="none" stroke="#000" stroke-width="0.2"/><path d="M175.026,165.048h0l0,0a.612.612,0,0,0-.084-.858h0l-27.784-22.72-.057-.047-.044.059c-.215.287-.449.557-.684.828l-.048.055.056.046,27.786,22.721a.579.579,0,0,0,.388.143.61.61,0,0,0,.47-.224" transform="translate(-43.244 -41.203)"/><path d="M175.026,165.048h0l0,0a.612.612,0,0,0-.084-.858h0l-27.784-22.72-.057-.047-.044.059c-.215.287-.449.557-.684.828l-.048.055.056.046,27.786,22.721a.579.579,0,0,0,.388.143A.61.61,0,0,0,175.026,165.048Z" transform="translate(-43.244 -41.203)" fill="none" stroke="#000" stroke-width="0.2"/><path d="M55.106,66.24h0a.61.61,0,0,0-.774.943h0L82.116,89.9l.056.046.044-.059c.216-.287.449-.557.684-.828l.048-.055-.056-.046Z" transform="translate(-15.991 -18.944)"/><path d="M55.106,66.24h0a.61.61,0,0,0-.774.943h0L82.116,89.9l.056.046.044-.059c.216-.287.449-.557.684-.828l.048-.055-.056-.046Z" transform="translate(-15.991 -18.944)" fill="none" stroke="#000" stroke-width="0.2"/><path d="M165.129,55.107h0a.61.61,0,0,0-.943-.774h0l-22.72,27.785-.047.056.058.044c.287.216.557.449.828.684l.055.048.046-.056Z" transform="translate(-41.795 -15.4)"/><path d="M165.129,55.107h0a.61.61,0,0,0-.943-.774h0l-22.72,27.785-.047.056.058.044c.287.216.557.449.828.684l.055.048.046-.056Z" transform="translate(-41.795 -15.4)" fill="none" stroke="#000" stroke-width="0.2"/><path d="M66.239,174.168h0v0a.612.612,0,0,0,.085.857.575.575,0,0,0,.387.142.614.614,0,0,0,.47-.223h0L89.9,147.159l.047-.057-.058-.044c-.287-.215-.557-.449-.828-.684l-.055-.047-.046.056Z" transform="translate(-19.535 -42.653)"/><path d="M66.239,174.168h0v0a.612.612,0,0,0,.085.857.575.575,0,0,0,.387.142.614.614,0,0,0,.47-.223h0L89.9,147.159l.047-.057-.058-.044c-.287-.215-.557-.449-.828-.684l-.055-.047-.046.056Z" transform="translate(-19.535 -42.653)" fill="none" stroke="#000" stroke-width="0.2"/><path d="M154.738,181.361h0l-17.348-31.422-.035-.063-.062.037c-.306.18-.631.361-.938.523l-.063.034.035.063,17.347,31.421a.612.612,0,0,0,.533.327.488.488,0,0,0,.291-.083.609.609,0,0,0,.242-.834" transform="translate(-40.278 -43.701)"/><path d="M154.738,181.361h0l-17.348-31.422-.035-.063-.062.037c-.306.18-.631.361-.938.523l-.063.034.035.063,17.347,31.421a.612.612,0,0,0,.533.327.488.488,0,0,0,.291-.083A.609.609,0,0,0,154.738,181.361Z" transform="translate(-40.278 -43.701)" fill="none" stroke="#000" stroke-width="0.2"/><path d="M78.864,46.42h0L96.213,77.843l.035.063.063-.037c.306-.18.631-.361.938-.523l.063-.033-.035-.063L79.947,45.829h0a.617.617,0,1,0-1.083.591" transform="translate(-23.284 -12.857)"/><path d="M78.864,46.42h0L96.213,77.843l.035.063.063-.037c.306-.18.631-.361.938-.523l.063-.033-.035-.063L79.947,45.829h0a.617.617,0,1,0-1.083.591Z" transform="translate(-23.284 -12.857)" fill="none" stroke="#000" stroke-width="0.2"/><path d="M77.843,137.389l.063-.035-.037-.063c-.18-.306-.361-.631-.523-.938l-.033-.063-.063.035L45.829,153.674a.62.62,0,0,0,.287,1.163.486.486,0,0,0,.292-.083Z" transform="translate(-13.449 -39.687)"/><path d="M77.843,137.389l.063-.035-.037-.063c-.18-.306-.361-.631-.523-.938l-.033-.063-.063.035L45.829,153.674a.62.62,0,0,0,.287,1.163.486.486,0,0,0,.292-.083Z" transform="translate(-13.449 -39.687)" fill="none" stroke="#000" stroke-width="0.2"/><path d="M181.359,78.863h0L149.935,96.212l-.063.035.037.062c.18.306.361.631.523.938l.034.063.063-.035,31.421-17.33h0a.617.617,0,0,0-.592-1.083" transform="translate(-44.292 -22.692)"/><path d="M181.359,78.863h0L149.935,96.212l-.063.035.037.062c.18.306.361.631.523.938l.034.063.063-.035,31.421-17.33h0a.617.617,0,0,0-.592-1.083Z" transform="translate(-44.292 -22.692)" fill="none" stroke="#000" stroke-width="0.2"/><path d="M153.358,129.236l-.069-.02-.018.07c-.09.342-.2.7-.306,1.046l-.022.069.069.02,34.5,9.949a.521.521,0,0,0,.164.021h0a.63.63,0,0,0,.592-.447.6.6,0,0,0-.429-.758Z" transform="translate(-45.2 -37.596)"/><path d="M153.358,129.236l-.069-.02-.018.07c-.09.342-.2.7-.306,1.046l-.022.069.069.02,34.5,9.949a.521.521,0,0,0,.164.021h0a.63.63,0,0,0,.592-.447.6.6,0,0,0-.429-.758Z" transform="translate(-45.2 -37.596)" fill="none" stroke="#000" stroke-width="0.2"/><path d="M39.061,96.313a.615.615,0,1,0-.328,1.185l34.479,9.949.069.02.019-.07c.089-.342.2-.7.306-1.046l.022-.068-.07-.02-34.5-9.949h0" transform="translate(-11.312 -27.864)"/><path d="M39.061,96.313a.615.615,0,1,0-.328,1.185l34.479,9.949.069.02.019-.07c.089-.342.2-.7.306-1.046l.022-.068-.07-.02-34.5-9.949Z" transform="translate(-11.312 -27.864)" fill="none" stroke="#000" stroke-width="0.2"/><path d="M97.5,187.838h0l9.949-34.479.02-.069-.07-.019c-.342-.089-.7-.2-1.045-.306l-.069-.022-.02.07-9.949,34.5h0a.6.6,0,0,0,.428.757.514.514,0,0,0,.163.021h0a.63.63,0,0,0,.592-.448" transform="translate(-28.456 -44.608)"/><path d="M97.5,187.838h0l9.949-34.479.02-.069-.07-.019c-.342-.089-.7-.2-1.045-.306l-.069-.022-.02.07-9.949,34.5h0a.6.6,0,0,0,.428.757.514.514,0,0,0,.163.021h0A.63.63,0,0,0,97.5,187.838Z" transform="translate(-28.456 -44.608)" fill="none" stroke="#000" stroke-width="0.2"/><path d="M129.236,73.211l-.02.069.07.018c.342.09.7.2,1.046.307l.068.021.02-.069,9.949-34.5h0a.615.615,0,1,0-1.185-.328Z" transform="translate(-38.188 -10.72)"/><path d="M129.236,73.211l-.02.069.07.018c.342.09.7.2,1.046.307l.068.021.02-.069,9.949-34.5h0a.615.615,0,1,0-1.185-.328Z" transform="translate(-38.188 -10.72)" fill="none" stroke="#000" stroke-width="0.2"/><path d="M140.046,187.609h0a.614.614,0,0,0,.592.43h0a.547.547,0,0,0,.18-.022.608.608,0,0,0,.408-.757h0l-10.365-34.351-.02-.068-.068.022c-.344.109-.686.216-1.028.306l-.07.018.021.07Z" transform="translate(-38.324 -44.578)"/><path d="M140.046,187.609h0a.614.614,0,0,0,.592.43h0a.547.547,0,0,0,.18-.022.608.608,0,0,0,.408-.757h0l-10.365-34.351-.02-.068-.068.022c-.344.109-.686.216-1.028.306l-.07.018.021.07Z" transform="translate(-38.324 -44.578)" fill="none" stroke="#000" stroke-width="0.2"/><path d="M96.5,38.995h0a.609.609,0,1,0-1.166.35h0L105.7,73.7l.02.068.068-.022c.344-.108.686-.216,1.028-.306l.07-.018-.021-.07Z" transform="translate(-28.167 -10.803)"/><path d="M96.5,38.995h0a.609.609,0,1,0-1.166.35h0L105.7,73.7l.02.068.068-.022c.344-.108.686-.216,1.028-.306l.07-.018-.021-.07Z" transform="translate(-28.167 -10.803)" fill="none" stroke="#000" stroke-width="0.2"/><path d="M187.61,96.5h0a.609.609,0,0,0-.349-1.166h0L152.908,105.7l-.068.021.022.068c.108.344.216.686.306,1.028l.018.07.07-.02Z" transform="translate(-45.17 -27.575)"/><path d="M187.61,96.5h0a.609.609,0,0,0-.349-1.166h0L152.908,105.7l-.068.021.022.068c.108.344.216.686.306,1.028l.018.07.07-.02Z" transform="translate(-45.17 -27.575)" fill="none" stroke="#000" stroke-width="0.2"/><path d="M38.994,140.038h0a.606.606,0,0,0,.184,1.187h0a.565.565,0,0,0,.18-.021h0l34.351-10.365.068-.02-.022-.068c-.108-.344-.216-.686-.306-1.028l-.018-.07-.07.021Z" transform="translate(-11.395 -37.725)"/><path d="M38.994,140.038h0a.606.606,0,0,0,.184,1.187h0a.565.565,0,0,0,.18-.021h0l34.351-10.365.068-.02-.022-.068c-.108-.344-.216-.686-.306-1.028l-.018-.07-.07.021Z" transform="translate(-11.395 -37.725)" fill="none" stroke="#000" stroke-width="0.2"/><path d="M45.932,79.789h0a.626.626,0,0,0-.836.244h0a.626.626,0,0,0,.244.836h0l31.621,16.95.064.035.032-.065c.08-.162.166-.319.252-.478s.172-.318.254-.481l.03-.061-.061-.032Z" transform="translate(-13.306 -22.967)"/><path d="M45.932,79.789h0a.626.626,0,0,0-.836.244h0a.626.626,0,0,0,.244.836h0l31.621,16.95.064.035.032-.065c.08-.162.166-.319.252-.478s.172-.318.254-.481l.03-.061-.061-.032Z" transform="translate(-13.306 -22.967)" fill="none" stroke="#000" stroke-width="0.2"/><path d="M182.612,153.726a.625.625,0,0,0-.244-.835h0l-31.621-16.95-.064-.034-.032.065c-.08.161-.166.318-.252.477h0c-.086.158-.172.317-.254.481l-.03.061.061.032,31.621,16.951h0l.008,0,.036.015a.618.618,0,0,0,.243.063.591.591,0,0,0,.533-.328m0,0h0l-.062-.033.063.032ZM150.711,136l.062.034v0Zm0,0-.033.062h0l.032-.063" transform="translate(-44.363 -39.573)"/><path d="M182.612,153.726a.625.625,0,0,0-.244-.835h0l-31.621-16.95-.064-.034-.032.065c-.08.161-.166.318-.252.477h0c-.086.158-.172.317-.254.481l-.03.061.061.032,31.621,16.951h0l.008,0,.036.015a.618.618,0,0,0,.243.063A.591.591,0,0,0,182.612,153.726Zm0,0h0l-.062-.033.063.032ZM150.711,136l.062.034v0Zm0,0-.033.062h0Z" transform="translate(-44.363 -39.573)" fill="none" stroke="#000" stroke-width="0.2"/><path d="M79.789,181.8h0a.625.625,0,0,0,.244.835h0l.009,0,.036.015a.622.622,0,0,0,.244.063.591.591,0,0,0,.533-.328h0L97.8,150.769l.035-.064-.065-.032c-.162-.081-.319-.166-.478-.252h0c-.158-.086-.317-.173-.48-.254l-.061-.031-.032.061Z" transform="translate(-23.559 -43.778)"/><path d="M79.789,181.8h0a.625.625,0,0,0,.244.835h0l.009,0,.036.015a.622.622,0,0,0,.244.063.591.591,0,0,0,.533-.328h0L97.8,150.769l.035-.064-.065-.032c-.162-.081-.319-.166-.478-.252h0c-.158-.086-.317-.173-.48-.254l-.061-.031-.032.061Z" transform="translate(-23.559 -43.778)" fill="none" stroke="#000" stroke-width="0.2"/><path d="M153.973,45.933h0a.625.625,0,0,0-.244-.836h0a.626.626,0,0,0-.836.244v0l-16.95,31.621-.035.064.065.032c.162.08.319.166.478.252s.317.172.481.254l.061.03.032-.061Z" transform="translate(-40.165 -12.714)"/><path d="M153.973,45.933h0a.625.625,0,0,0-.244-.836h0a.626.626,0,0,0-.836.244v0l-16.95,31.621-.035.064.065.032c.162.08.319.166.478.252s.317.172.481.254l.061.03.032-.061Z" transform="translate(-40.165 -12.714)" fill="none" stroke="#000" stroke-width="0.2"/><path d="M164.867,174.4h0a.611.611,0,0,0,.47.223.546.546,0,0,0,.391-.145.614.614,0,0,0,.079-.857l-23.065-27.5-.046-.054-.054.047c-.271.235-.542.47-.831.7l-.056.045.047.054Z" transform="translate(-41.894 -42.577)"/><path d="M164.867,174.4h0a.611.611,0,0,0,.47.223.546.546,0,0,0,.391-.145.614.614,0,0,0,.079-.857l-23.065-27.5-.046-.054-.054.047c-.271.235-.542.47-.831.7l-.056.045.047.054Z" transform="translate(-41.894 -42.577)" fill="none" stroke="#000" stroke-width="0.2"/><path d="M66.385,55h0a.615.615,0,0,0-.859-.081h0a.616.616,0,0,0-.081.859h0l23.064,27.5.046.054.054-.047c.271-.235.542-.47.83-.7l.056-.045-.046-.054Z" transform="translate(-19.3 -15.597)"/><path d="M66.385,55h0a.615.615,0,0,0-.859-.081h0a.616.616,0,0,0-.081.859h0l23.064,27.5.046.054.054-.047c.271-.235.542-.47.83-.7l.056-.045-.046-.054Z" transform="translate(-19.3 -15.597)" fill="none" stroke="#000" stroke-width="0.2"/><path d="M55,164.866h0a.614.614,0,0,0-.081.859h0a.612.612,0,0,0,.469.223.548.548,0,0,0,.392-.145l27.495-23.063.054-.046-.047-.054c-.235-.271-.47-.542-.7-.831l-.045-.056-.054.046Z" transform="translate(-16.189 -41.302)"/><path d="M55,164.866h0a.614.614,0,0,0-.081.859h0a.612.612,0,0,0,.469.223.548.548,0,0,0,.392-.145l27.495-23.063.054-.046-.047-.054c-.235-.271-.47-.542-.7-.831l-.045-.056-.054.046Z" transform="translate(-16.189 -41.302)" fill="none" stroke="#000" stroke-width="0.2"/><path d="M174.391,66.385h0a.615.615,0,0,0,.081-.859h0a.616.616,0,0,0-.859-.081L146.1,88.509l-.055.046.046.054c.235.272.47.542.7.831l.045.056.055-.046Z" transform="translate(-43.161 -18.709)"/><path d="M174.391,66.385h0a.615.615,0,0,0,.081-.859h0a.616.616,0,0,0-.859-.081L146.1,88.509l-.055.046.046.054c.235.272.47.542.7.831l.045.056.055-.046Z" transform="translate(-43.161 -18.709)" fill="none" stroke="#000" stroke-width="0.2"/><path d="M35.928,112.394h0a.642.642,0,0,0-.671.549h0v0a.63.63,0,0,0,.55.671h0l35.746,3.148.073.006,0-.073c.018-.359.054-.719.09-1.081l.007-.071-.071-.006Z" transform="translate(-10.419 -32.624)"/><path d="M35.928,112.394h0a.642.642,0,0,0-.671.549h0v0a.63.63,0,0,0,.55.671h0l35.746,3.148.073.006,0-.073c.018-.359.054-.719.09-1.081l.007-.071-.071-.006Z" transform="translate(-10.419 -32.624)" fill="none" stroke="#000" stroke-width="0.2"/><path d="M190.143,127.167h.061a.633.633,0,0,0,.613-.549v0a.631.631,0,0,0-.549-.671h0l-35.746-3.148-.073-.006,0,.073c-.018.36-.054.72-.09,1.082l-.007.071.071.006Z" transform="translate(-45.614 -35.696)"/><path d="M190.143,127.167h.061a.633.633,0,0,0,.613-.549v0a.631.631,0,0,0-.549-.671h0l-35.746-3.148-.073-.006,0,.073c-.018.36-.054.72-.09,1.082l-.007.071.071.006Z" transform="translate(-45.614 -35.696)" fill="none" stroke="#000" stroke-width="0.2"/><path d="M112.393,190.144h0v0a.631.631,0,0,0,.55.671h.063a.633.633,0,0,0,.613-.549v0l3.148-35.745.006-.073-.073,0c-.36-.018-.72-.054-1.082-.09l-.07-.007-.006.071Z" transform="translate(-33.216 -45.023)"/><path d="M112.393,190.144h0v0a.631.631,0,0,0,.55.671h.063a.633.633,0,0,0,.613-.549v0l3.148-35.745.006-.073-.073,0c-.36-.018-.72-.054-1.082-.09l-.07-.007-.006.071Z" transform="translate(-33.216 -45.023)" fill="none" stroke="#000" stroke-width="0.2"/><path d="M127.167,35.928h0v0a.631.631,0,0,0-.55-.671h0a.643.643,0,0,0-.671.55v0l-3.148,35.746-.007.073.073,0c.36.018.72.054,1.082.09l.071.007.006-.071Z" transform="translate(-36.288 -9.827)"/><path d="M127.167,35.928h0v0a.631.631,0,0,0-.55-.671h0a.643.643,0,0,0-.671.55v0l-3.148,35.746-.007.073.073,0c.36.018.72.054,1.082.09l.071.007.006-.071Z" transform="translate(-36.288 -9.827)" fill="none" stroke="#000" stroke-width="0.2"/></g></svg>