<svg xmlns="http://www.w3.org/2000/svg" xmlns:xlink="http://www.w3.org/1999/xlink" width="285.562" height="171.842" viewBox="0 0 285.562 171.842"><defs><clipPath id="a"><path d="M0,0H285.562V171.842H0Z" fill="none"/></clipPath></defs><g clip-path="url(#a)"><path d="M106.529,167.205.75,167.27m172.069-.064h51.957" transform="translate(29.692 1.811)" fill="none" stroke="#000" stroke-linecap="round" stroke-width="1.5"/><path d="M135.591,168.946c-1.8.964-15.393-37.414-23.86-43.744-7.713-5.784-21.124-15.844-28.837-22.13C68.1,91.042,62.985,73.438,59.17,54.744c-1.508-7.377-2.6-14.922-1.718-22.382s3.94-14.922,9.64-19.826c1.509-1.341,2.683-2.725,4.067-.923,1.928,2.515-7.084,9.473-3.815,12.155" transform="translate(0.619 0.117)" fill="none" stroke="#1d1916" stroke-linecap="round" stroke-linejoin="round" stroke-width="1.5"/><path d="M70.8,13.926c9.556,3.437,19.532,7.125,29.046,10.562,11.276,4.066,22.719,8.258,32.652,14.963,14.125,9.557,24.395,23.64,34.369,37.473,10.186,14.083,20.706,29,22.97,46.232-5.826-.586-30.934.964-27.915,7.881,4.107,9.556,21-5.449,30.262-.8,3.562,1.8,10.771,37.116,9.6,38.415" transform="translate(0.767 0.151)" fill="none" stroke="#1d1916" stroke-linecap="round" stroke-linejoin="round" stroke-width="1.5"/><path d="M76.3,23.167c-1.383,2.431-4.946,5.532-7.754,7.251a4.709,4.709,0,0,0-2.1,5.114C70.177,50.2,76,64.453,82,78.033c1.761,3.982-11.316,2.515-8.8,5.826,1.006,1.341,7.125-1.257,8.76-1.552,8.97-1.635,13.2,5.743,20.79,10.814,6.538,4.36,13.622,7.755,20.706,11.15,5.281,2.515,30.513-9.221,24.561-17.981-4.149-6.12-10.771-14.67-15.34-20.5-2.976-3.814,10.185-6.664,7.713-9.431-3.437-3.814-9.767,5.868-10.856,4.778C113.979,45.8,87.865,26.52,67.285,19.9" transform="translate(0.719 0.216)" fill="none" stroke="#1d1916" stroke-linecap="round" stroke-linejoin="round" stroke-width="1.5"/><path d="M66.954,12.9c-10.814-1.718-21-6.748-30.6-12.029A.869.869,0,0,0,35.141,2a6.7,6.7,0,0,0,1.341,1.886,55.538,55.538,0,0,0,11.484,9.473c8.131,4.988,2.431,2.431.126.377a2.9,2.9,0,0,0-1.761-.922,1.039,1.039,0,0,0-.88.461c-.418.671.126,1.384.629,1.929a32.528,32.528,0,0,0,11.736,7.419l2.18.419" transform="translate(0.38 0.008)" fill="none" stroke="#1d1916" stroke-linecap="round" stroke-linejoin="round" stroke-width="1.5"/><path d="M66.868,12.851c-7.922-1.257-15.3-5.323-22.885-7.963a.787.787,0,0,0-.922,1.174A8.062,8.062,0,0,0,46.2,8.7c1.76.922,3.772,1.383,5.407,2.556,8.592,6.12,2.85,6.036.545,4.946" transform="translate(0.465 0.052)" fill="none" stroke="#1d1916" stroke-linecap="round" stroke-linejoin="round" stroke-width="1.5"/><path d="M130.178,72.6c1.592,3.185,5.742,6.413,8.383,8.76a4.339,4.339,0,0,0,3.312,1.467c1.215-.168,1.383-.922,2.389-2.012" transform="translate(1.411 0.787)" fill="none" stroke="#1d1916" stroke-linecap="round" stroke-linejoin="round" stroke-width="1.5"/><path d="M121.761,60.5c-14.545-18.443-27.747-1.593-27.747-1.593-10.185,13.665,6.748,27.413,12.868,30.514,3.269,1.677,13.831,4.276,18.191,2.641a10.833,10.833,0,0,0,7.545-9.767c.461-4.443-2.222-11.4-5.282-14.628,1.215-.545-.922-7.42-4.862-7.252-1.383.042-2.306.5-2.515,1.845-.461-2.264-3.144-4.778-5.323-5.575s3.185,7.209.838,7.335c-5.448.252-10.269-8.3-17.185,3.06-4.568,7.5,3.06,20.286,8.635,22.341" transform="translate(0.984 0.562)" fill="none" stroke="#1d1916" stroke-linecap="round" stroke-linejoin="round" stroke-width="1.5"/><path d="M119.616,101.9s2.556-2.3,2.85-3.856c.713-3.689-2.053-3.855-7.8-6.581" transform="translate(1.243 0.991)" fill="none" stroke="#1d1916" stroke-linecap="round" stroke-linejoin="round" stroke-width="1.5"/></g></svg>